<svg xmlns="http://www.w3.org/2000/svg" width="172" height="48" viewBox="0 0 172 48" fill="none">
  <g clip-path="url(#clip0_76_85)">
    <path d="M13.2618 31.5353C20.2953 31.5353 25.997 24.89 25.997 16.6926C25.997 8.49518 20.2953 1.84986 13.2618 1.84986C6.22836 1.84986 0.526611 8.49518 0.526611 16.6926C0.526611 24.89 6.22836 31.5353 13.2618 31.5353Z" stroke="#231F20" stroke-width="1.2" stroke-linecap="round" stroke-linejoin="round"/>
    <path d="M147.451 31.5529C152.206 31.5529 156.061 27.2195 156.061 21.874C156.061 16.5285 152.206 12.1951 147.451 12.1951C142.696 12.1951 138.841 16.5285 138.841 21.874C138.841 27.2195 142.696 31.5529 147.451 31.5529Z" stroke="#231F20" stroke-width="1.2" stroke-linecap="round" stroke-linejoin="round"/>
    <path d="M118.575 31.5529C123.33 31.5529 127.185 27.2195 127.185 21.874C127.185 16.5285 123.33 12.1951 118.575 12.1951C113.82 12.1951 109.965 16.5285 109.965 21.874C109.965 27.2195 113.82 31.5529 118.575 31.5529Z" stroke="#231F20" stroke-width="1.2" stroke-linecap="round" stroke-linejoin="round"/>
    <path d="M130.916 32.9293C130.916 40.7058 126.975 45.2734 120.647 45.2734L112.581 45.3436" stroke="#231F20" stroke-width="1.2" stroke-linecap="round" stroke-linejoin="round"/>
    <path d="M87.1979 21.8827H103.497C103.497 16.5348 99.6435 12.2038 94.8777 12.2038C90.1118 12.2038 86.2676 16.5348 86.2676 21.8827C86.2676 27.2307 90.1206 31.5616 94.8777 31.5616C98.1602 31.5616 101.013 29.5014 102.47 26.4679" stroke="#231F20" stroke-width="1.2" stroke-linecap="round" stroke-linejoin="round"/>
    <path d="M83.4241 1.3063L79.062 7.55726C76.8853 4.29589 73.3219 2.17425 69.3021 2.17425C67.6521 2.17425 65.7475 2.5337 64.3081 3.18247" stroke="#231F20" stroke-width="1.2" stroke-linecap="round" stroke-linejoin="round"/>
    <path d="M169.349 29.8433V0.526028" stroke="#231F20" stroke-width="1.2" stroke-linecap="round" stroke-linejoin="round"/>
    <path d="M161.011 31.6668L159.379 11.4849L155.561 25.2756" stroke="#231F20" stroke-width="1.2" stroke-linecap="round" stroke-linejoin="round"/>
    <path d="M130.898 33.2362L130.503 11.4849L126.685 25.2756" stroke="#231F20" stroke-width="1.2" stroke-linecap="round" stroke-linejoin="round"/>
    <path d="M32.3428 31.5616V9.73151L36.9594 15.9825L41.7077 9.73151" stroke="#231F20" stroke-width="1.2" stroke-linecap="round" stroke-linejoin="round"/>
    <path d="M32.3427 32.4559C33.8115 32.4559 35.0021 31.2666 35.0021 29.7995C35.0021 28.3323 33.8115 27.143 32.3427 27.143C30.874 27.143 29.6833 28.3323 29.6833 29.7995C29.6833 31.2666 30.874 32.4559 32.3427 32.4559Z" fill="black"/>
    <path d="M112.265 48C113.733 48 114.924 46.8107 114.924 45.3436C114.924 43.8765 113.733 42.6871 112.265 42.6871C110.796 42.6871 109.605 43.8765 109.605 45.3436C109.605 46.8107 110.796 48 112.265 48Z" fill="black"/>
    <path d="M169.349 32.4559C170.818 32.4559 172.009 31.2666 172.009 29.7995C172.009 28.3323 170.818 27.143 169.349 27.143C167.881 27.143 166.69 28.3323 166.69 29.7995C166.69 31.2666 167.881 32.4559 169.349 32.4559Z" fill="black"/>
    <path d="M69.381 2.26192C67.7309 2.26192 65.8264 2.62137 64.387 3.27014" stroke="#231F20" stroke-width="1.2" stroke-linecap="round" stroke-linejoin="round"/>
    <path d="M69.7498 2.24438C63.7025 2.24438 60.6394 5.24274 60.6482 8.24109C60.6569 10.7397 63.6674 13.4663 68.6351 14.2378C75.6566 15.3337 80.519 16.6575 80.519 22.4175C80.519 27.029 75.6478 29.8871 69.504 29.8871C64.3871 29.8871 58.1643 25.9507 58.1643 20.2959" stroke="#231F20" stroke-width="1.2" stroke-linecap="round" stroke-linejoin="round"/>
  </g>
  <defs>
    <clipPath id="clip0_76_85">
      <rect width="172" height="48" fill="white"/>
    </clipPath>
  </defs>
</svg>