<svg xmlns="http://www.w3.org/2000/svg" width="20" height="20" viewBox="0 0 29 29" fill="none">
  <path d="M5.33366 13.6667C5.33366 12.1939 4.13975 11 2.66699 11C1.19423 11 0.000326157 12.1939 0.000326157 13.6667C0.000326157 15.1394 1.19423 16.3334 2.66699 16.3334C4.13975 16.3334 5.33366 15.1394 5.33366 13.6667ZM28.3337 13.6667C28.3337 12.1939 27.1398 11 25.667 11C24.1942 11 23.0003 12.1939 23.0003 13.6667C23.0003 15.1394 24.1942 16.3334 25.667 16.3334C27.1398 16.3334 28.3337 15.1394 28.3337 13.6667ZM2.66699 13.6667V14.1667L25.667 14.1667V13.6667V13.1667L2.66699 13.1667V13.6667Z" fill="black"/>
  <path d="M7.28915 7.28885C8.33055 6.24745 8.33055 4.55901 7.28915 3.51761C6.24776 2.47622 4.55932 2.47621 3.51792 3.51761C2.47652 4.55901 2.47652 6.24745 3.51792 7.28885C4.55932 8.33025 6.24776 8.33025 7.28915 7.28885ZM23.5526 23.5523C24.594 22.5109 24.594 20.8225 23.5526 19.7811C22.5112 18.7397 20.8228 18.7397 19.7814 19.7811C18.74 20.8225 18.74 22.5109 19.7814 23.5523C20.8228 24.5937 22.5112 24.5937 23.5526 23.5523ZM5.40354 5.40323L5.04998 5.75678L21.3134 22.0202L21.667 21.6667L22.0205 21.3131L5.75709 5.04968L5.40354 5.40323Z" fill="black"/>
  <path d="M13.667 5.33335C15.1398 5.33335 16.3337 4.13945 16.3337 2.66669C16.3337 1.19393 15.1398 1.9091e-05 13.667 1.90735e-05C12.1942 1.90559e-05 11.0003 1.19393 11.0003 2.66669C11.0003 4.13945 12.1942 5.33335 13.667 5.33335ZM13.667 28.3334C15.1398 28.3334 16.3337 27.1394 16.3337 25.6667C16.3337 24.1939 15.1398 23 13.667 23C12.1942 23 11.0003 24.1939 11.0003 25.6667C11.0003 27.1394 12.1942 28.3334 13.667 28.3334ZM13.667 2.66669L13.167 2.66669L13.167 25.6667L13.667 25.6667L14.167 25.6667L14.167 2.66669L13.667 2.66669Z" fill="black"/>
  <path d="M20.0448 7.28885C21.0862 8.33025 22.7747 8.33025 23.8161 7.28885C24.8575 6.24745 24.8575 4.55901 23.8161 3.51761C22.7747 2.47621 21.0862 2.47622 20.0448 3.51761C19.0034 4.55901 19.0034 6.24745 20.0448 7.28885ZM3.78137 23.5523C4.82277 24.5937 6.51121 24.5937 7.55261 23.5523C8.59401 22.5109 8.59401 20.8225 7.55261 19.7811C6.51121 18.7397 4.82277 18.7397 3.78137 19.7811C2.73998 20.8225 2.73998 22.5109 3.78137 23.5523ZM21.9304 5.40323L21.5769 5.04968L5.31344 21.3131L5.66699 21.6667L6.02055 22.0202L22.284 5.75678L21.9304 5.40323Z" fill="black"/>
</svg>